<svg width="23" height="20" viewBox="0 0 23 20" fill="none" xmlns="http://www.w3.org/2000/svg">
<path d="M0.9375 0C0.417969 0 0 0.417969 0 0.9375C0 1.45703 0.417969 1.875 0.9375 1.875H2.97266L5.32812 14.2383C5.41406 14.6797 5.80078 15 6.25 15H19.0625C19.582 15 20 14.582 20 14.0625C20 13.543 19.582 13.125 19.0625 13.125H7.02734L6.67188 11.25H19.0547C19.6133 11.25 20.1055 10.8789 20.2578 10.3398L22.3672 2.83984C22.5898 2.04297 21.9922 1.25 21.1641 1.25H4.76562L4.67188 0.761719C4.58594 0.320312 4.19922 0 3.75 0H0.9375ZM6.875 20C7.91016 20 8.75 19.1602 8.75 18.125C8.75 17.0898 7.91016 16.25 6.875 16.25C5.83984 16.25 5 17.0898 5 18.125C5 19.1602 5.83984 20 6.875 20ZM20 18.125C20 17.0898 19.1602 16.25 18.125 16.25C17.0898 16.25 16.25 17.0898 16.25 18.125C16.25 19.1602 17.0898 20 18.125 20C19.1602 20 20 19.1602 20 18.125Z" fill="#F8F8F8"/>
</svg>
