<svg width="21" height="20" viewBox="0 0 21 20" fill="none" xmlns="http://www.w3.org/2000/svg">
<path d="M20.0017 1.9867C20.1306 2.11596 20.2029 2.29105 20.2029 2.47358C20.2029 2.65611 20.1306 2.83119 20.0017 2.96046L18.5631 4.40042L15.8046 1.64188L17.2432 0.201916C17.3725 0.0726294 17.5479 0 17.7307 0C17.9136 0 18.089 0.0726294 18.2183 0.201916L20.0017 1.98532V1.9867ZM17.588 5.37419L14.8294 2.61564L5.43244 12.014C5.35653 12.0899 5.29938 12.1825 5.26555 12.2843L4.15523 15.6139C4.1351 15.6746 4.13224 15.7397 4.14698 15.8019C4.16171 15.8642 4.19347 15.9211 4.23869 15.9663C4.28391 16.0115 4.34082 16.0433 4.40305 16.058C4.46528 16.0728 4.53038 16.0699 4.59108 16.0498L7.92065 14.9394C8.02239 14.906 8.11495 14.8493 8.19099 14.7739L17.588 5.37557V5.37419Z" fill="#7B888C"/>
<path fill-rule="evenodd" clip-rule="evenodd" d="M0 17.9311C0 18.4798 0.217974 19.006 0.60597 19.394C0.993965 19.782 1.5202 20 2.06891 20H17.2409C17.7896 20 18.3159 19.782 18.7039 19.394C19.0918 19.006 19.3098 18.4798 19.3098 17.9311V9.65546C19.3098 9.47256 19.2372 9.29715 19.1078 9.16781C18.9785 9.03848 18.8031 8.96582 18.6202 8.96582C18.4373 8.96582 18.2619 9.03848 18.1325 9.16781C18.0032 9.29715 17.9305 9.47256 17.9305 9.65546V17.9311C17.9305 18.114 17.8579 18.2894 17.7286 18.4187C17.5992 18.5481 17.4238 18.6207 17.2409 18.6207H2.06891C1.88601 18.6207 1.7106 18.5481 1.58126 18.4187C1.45193 18.2894 1.37927 18.114 1.37927 17.9311V2.7591C1.37927 2.57619 1.45193 2.40078 1.58126 2.27145C1.7106 2.14212 1.88601 2.06946 2.06891 2.06946H11.0342C11.2171 2.06946 11.3925 1.9968 11.5218 1.86747C11.6512 1.73814 11.7238 1.56273 11.7238 1.37982C11.7238 1.19692 11.6512 1.02151 11.5218 0.892175C11.3925 0.762843 11.2171 0.690186 11.0342 0.690186H2.06891C1.5202 0.690186 0.993965 0.908159 0.60597 1.29616C0.217974 1.68415 0 2.21039 0 2.7591V17.9311Z" fill="#7B888C"/>
</svg>
