<svg width="20" height="15" viewBox="0 0 20 15" fill="none" xmlns="http://www.w3.org/2000/svg">
<path d="M18.9833 7.65791C18.9943 7.63203 19 7.60418 19 7.57605C19 7.54791 18.9943 7.52006 18.9833 7.49418C18.5903 6.75331 15.504 1.13741 10.0642 1.00233C4.62426 0.867257 1.46839 6.6387 1.02632 7.47371C1.00908 7.50358 1 7.53746 1 7.57195C1 7.60644 1.00908 7.64032 1.02632 7.67019C1.50932 8.46018 4.88623 13.7773 9.11453 14.1661C13.7767 14.5755 17.5588 11.3009 18.9833 7.65791Z" stroke="#003652" stroke-width="1.5"/>
<path d="M9.94145 10.3471C11.5035 10.3471 12.7699 9.0808 12.7699 7.51871C12.7699 5.95662 11.5035 4.69029 9.94145 4.69029C8.37936 4.69029 7.11304 5.95662 7.11304 7.51871C7.11304 9.0808 8.37936 10.3471 9.94145 10.3471Z" stroke="#003652" stroke-width="1.5"/>
</svg>
