<svg width="109" height="58" viewBox="0 0 109 58" fill="none" xmlns="http://www.w3.org/2000/svg">
<path fill-rule="evenodd" clip-rule="evenodd" d="M48.7456 30.8545L53.6571 31.0723C51.8689 31.0375 45.4553 31.4391 44.4301 32.1968L50.7483 32.1513L50.3429 33.9068C49.6874 35.042 43.7506 33.8371 40.6868 34.6404L40.1385 34.8474C41.6644 34.8813 42.9161 35.0768 44.287 35.1339C45.5507 35.1919 46.7667 34.9733 48.0422 35.0652L44.1201 35.5355L43.8221 38.76L39.0298 38.3013C38.839 37.8077 38.9344 37.739 38.9821 37.1652C37.0986 37.3258 36.3953 38.6333 37.039 40.3549C37.194 40.802 38.5053 40.2745 38.5291 41.3419C37.0867 41.6971 35.1673 41.7775 34.0468 42.42C34.0587 42.4316 34.0707 42.4432 34.0825 42.4432C45.205 41.8007 57.1146 39.93 68.3797 39.0581C68.4872 38.6565 68.5827 38.2665 68.5104 37.7961L59.0813 35.8113L59.9037 27.5265C60.8217 27.6987 66.8182 30.9 68.7608 31.6461L61.7156 27.4346C60.7855 26.8955 60.3089 26.3109 59.0451 26.3797C56.6973 26.5055 54.3959 26.6893 52.0358 26.8384C50.0092 26.9642 49.282 26.7349 49.0793 27.4239C48.8886 28.0432 48.8409 30.0629 48.7456 30.8545Z" fill="url(#paint0_linear_315_46)"/>
<path fill-rule="evenodd" clip-rule="evenodd" d="M108.59 57.75C92.8301 18.2439 23.0436 62.282 0 33.4936C13.5782 71.4379 83.9722 28.6287 108.59 57.75Z" fill="url(#paint1_linear_315_46)"/>
<path fill-rule="evenodd" clip-rule="evenodd" d="M8.86914 39.1955L17.5 37.7845C17.9054 35.249 18.5967 32.8046 19.5385 30.4752L12.4454 24.8303L16.4033 18.2439L25.0223 21.331C26.6793 19.3577 28.539 17.5674 30.5894 15.9842L27.3708 7.67616L34.2254 3.86709L40.0787 10.6945C42.4986 9.78774 45.0498 9.12196 47.6843 8.73195L49.2222 7.62939e-06H57.1255L58.6638 8.73195C61.2981 9.12196 63.8378 9.78774 66.2579 10.6945L72.1227 3.86709L78.9658 7.67616L75.7585 15.9842C77.8095 17.5674 79.6686 19.3577 81.3136 21.331L89.9453 18.2439L93.9027 24.8303L86.8093 30.4752C87.7514 32.7938 88.4431 35.249 88.8483 37.7845L97.9205 39.2652V43.0626H96.7401C92.2699 40.6878 87.0124 39.5284 81.2783 39.1161C80.3724 33.1491 77.4757 27.8023 73.2549 23.7406C68.1171 18.7955 61.0125 15.7316 53.1681 15.7316C45.3359 15.7316 38.2309 18.7955 33.0929 23.7406C28.0741 28.5707 24.915 35.2142 24.7839 42.5575C18.9306 42.2826 13.5183 41.3303 8.86914 39.1955Z" fill="url(#paint2_linear_315_46)"/>
<path fill-rule="evenodd" clip-rule="evenodd" d="M26.7988 42.6271C26.9181 35.7881 29.8507 29.6149 34.5238 25.1168C39.2922 20.5161 45.8846 17.6817 53.1685 17.6817C60.4519 17.6817 67.0566 20.5161 71.8254 25.1168C75.6522 28.8001 78.3106 33.6194 79.2165 39.001C77.1181 38.9091 74.9604 38.9091 72.7545 38.9778C71.0382 30.0745 62.9202 23.3274 53.1685 23.3274C42.1771 23.3274 33.2601 31.9103 33.2601 42.5004V42.5236C31.0547 42.6271 28.909 42.661 26.7988 42.6271Z" fill="url(#paint3_linear_315_46)"/>
<path fill-rule="evenodd" clip-rule="evenodd" d="M108.59 57.75C93.0564 27.8478 19.2527 66.8372 0 33.4936C13.5782 71.4379 86.4998 35.4552 108.59 57.75Z" fill="url(#paint4_linear_315_46)"/>
<defs>
<linearGradient id="paint0_linear_315_46" x1="34.0468" y1="34.4083" x2="68.7611" y2="34.4083" gradientUnits="userSpaceOnUse">
<stop stop-color="#484848"/>
<stop offset="0.15625" stop-color="#707070"/>
<stop offset="0.348315" stop-color="#CCCCCC"/>
<stop offset="0.552131" stop-color="#767676"/>
<stop offset="0.776786" stop-color="#E2E2E2"/>
<stop offset="0.991071" stop-color="#616161"/>
<stop offset="1" stop-color="#616161"/>
</linearGradient>
<linearGradient id="paint1_linear_315_46" x1="0" y1="45.6213" x2="108.589" y2="45.6213" gradientUnits="userSpaceOnUse">
<stop stop-color="#616161"/>
<stop offset="0.00892857" stop-color="#616161"/>
<stop offset="0.223214" stop-color="#E2E2E2"/>
<stop offset="0.359551" stop-color="#767676"/>
<stop offset="0.651685" stop-color="white"/>
<stop offset="0.84375" stop-color="#707070"/>
<stop offset="1" stop-color="#484848"/>
</linearGradient>
<linearGradient id="paint2_linear_315_46" x1="8.86914" y1="21.5318" x2="97.9201" y2="21.5318" gradientUnits="userSpaceOnUse">
<stop stop-color="#484848"/>
<stop offset="0.15625" stop-color="#707070"/>
<stop offset="0.348315" stop-color="white"/>
<stop offset="0.640449" stop-color="#767676"/>
<stop offset="0.776786" stop-color="#E2E2E2"/>
<stop offset="0.991071" stop-color="#616161"/>
<stop offset="1" stop-color="#616161"/>
</linearGradient>
<linearGradient id="paint3_linear_315_46" x1="26.7988" y1="30.1611" x2="79.2161" y2="30.1611" gradientUnits="userSpaceOnUse">
<stop stop-color="#616161"/>
<stop offset="0.00892857" stop-color="#616161"/>
<stop offset="0.223214" stop-color="#E2E2E2"/>
<stop offset="0.359551" stop-color="#767676"/>
<stop offset="0.651685" stop-color="white"/>
<stop offset="0.84375" stop-color="#707070"/>
<stop offset="1" stop-color="#484848"/>
</linearGradient>
<linearGradient id="paint4_linear_315_46" x1="0" y1="45.6213" x2="108.589" y2="45.6213" gradientUnits="userSpaceOnUse">
<stop stop-color="#484848"/>
<stop offset="0.15625" stop-color="#707070"/>
<stop offset="0.348315" stop-color="white"/>
<stop offset="0.640449" stop-color="#767676"/>
<stop offset="0.776786" stop-color="#E2E2E2"/>
<stop offset="0.991071" stop-color="#616161"/>
<stop offset="1" stop-color="#616161"/>
</linearGradient>
</defs>
</svg>
