<svg width="18" height="22" viewBox="0 0 18 22" fill="none" xmlns="http://www.w3.org/2000/svg">
<path d="M1.00011 11L5.44455 15.4444M1.00011 11L5.44455 6.55555M1.00011 11L12.1112 11M6.55566 0.999999C7.86888 0.999999 9.16924 1.25866 10.3825 1.7612C11.5958 2.26375 12.6981 3.00035 13.6267 3.92893C14.5553 4.85752 15.2919 5.95991 15.7945 7.17316C16.297 8.38642 16.5557 9.68678 16.5557 11C16.5557 12.3132 16.297 13.6136 15.7945 14.8268C15.2919 16.0401 14.5553 17.1425 13.6267 18.0711C12.6981 18.9997 11.5958 19.7362 10.3825 20.2388C9.16924 20.7413 7.86888 21 6.55566 21" stroke="#F8F8F8" stroke-width="2" stroke-linecap="round" stroke-linejoin="round"/>
</svg>
