<svg width="114" height="72" viewBox="0 0 114 72" fill="none" xmlns="http://www.w3.org/2000/svg">
<path d="M2.55575 69H0.727628L5.62571 59.5455H7.74006L9.50355 69H7.67543L6.4059 61.4844H6.33203L2.55575 69ZM3.22976 65.293H8.21555L7.98473 66.6687H2.99893L3.22976 65.293ZM12.5043 59.5455L13.7322 66.9872H13.8292L17.5178 59.5455H19.4013L14.4986 69H12.3842L10.6254 59.5455H12.5043ZM19.1866 69H17.3585L22.2566 59.5455H24.3709L26.1344 69H24.3063L23.0368 61.4844H22.9629L19.1866 69ZM19.8606 65.293H24.8464L24.6156 66.6687H19.6298L19.8606 65.293ZM36.7188 59.5455L35.1492 69H33.6258L30.2419 62.56H30.1681L29.0924 69H27.3797L28.9493 59.5455H30.482L33.8612 65.9901H33.949L35.0154 59.5455H36.7188ZM44.411 62.5646C44.3772 62.3153 44.3156 62.0922 44.2264 61.8952C44.1371 61.6952 44.0171 61.5259 43.8663 61.3874C43.7155 61.2459 43.5324 61.1381 43.3169 61.0643C43.1015 60.9904 42.8507 60.9535 42.5645 60.9535C42.0566 60.9535 41.575 61.0812 41.1195 61.3366C40.664 61.5921 40.2747 61.9676 39.9515 62.4631C39.6284 62.9555 39.4083 63.5556 39.2914 64.2635C39.1744 64.9775 39.1806 65.5823 39.3098 66.0778C39.4391 66.5733 39.6761 66.9503 40.0208 67.2088C40.3685 67.4643 40.8056 67.592 41.3319 67.592C41.815 67.592 42.2536 67.4996 42.6475 67.315C43.0415 67.1303 43.3677 66.8687 43.6262 66.5302C43.8878 66.1886 44.054 65.7885 44.1248 65.3299L44.5034 65.3899H41.932L42.1628 64.0511H45.9991L45.8052 65.1868C45.6729 65.9993 45.3851 66.701 44.9419 67.2919C44.5018 67.8797 43.9525 68.3337 43.2939 68.6538C42.6383 68.9708 41.9197 69.1293 41.138 69.1293C40.2701 69.1293 39.5391 68.9338 38.9451 68.543C38.3542 68.149 37.9357 67.5904 37.6895 66.8672C37.4432 66.1409 37.4032 65.2791 37.5694 64.282C37.6925 63.5187 37.911 62.837 38.225 62.2369C38.542 61.6367 38.9297 61.1274 39.3883 60.7088C39.85 60.2872 40.3624 59.9671 40.9256 59.7486C41.4888 59.527 42.0797 59.4162 42.6983 59.4162C43.2185 59.4162 43.6924 59.4931 44.1202 59.647C44.548 59.7978 44.9142 60.0133 45.2189 60.2933C45.5267 60.5734 45.7621 60.9058 45.9252 61.2905C46.0884 61.6752 46.1653 62.0999 46.1561 62.5646H44.411ZM47.7511 69H45.9229L50.821 59.5455H52.9354L54.6989 69H52.8707L51.6012 61.4844H51.5273L47.7511 69ZM48.4251 65.293H53.4109L53.18 66.6687H48.1942L48.4251 65.293ZM55.9442 69L57.5138 59.5455H61.0592C61.7855 59.5455 62.3749 59.6716 62.8273 59.924C63.2797 60.1764 63.5952 60.5303 63.7737 60.9858C63.9522 61.4382 63.9907 61.966 63.8891 62.5692C63.7906 63.1725 63.5752 63.6972 63.2428 64.1435C62.9135 64.5866 62.478 64.9298 61.9363 65.1729C61.3978 65.4161 60.7653 65.5376 60.039 65.5376H57.5138L57.7538 64.1158H60.0528C60.4775 64.1158 60.8345 64.0573 61.1238 63.9403C61.4131 63.8203 61.6409 63.6464 61.8071 63.4187C61.9764 63.1879 62.0887 62.9047 62.1441 62.5692C62.1964 62.2338 62.1764 61.9476 62.0841 61.7106C61.9948 61.4705 61.824 61.2889 61.5716 61.1658C61.3224 61.0397 60.9854 60.9766 60.5606 60.9766H58.991L57.6569 69H55.9442ZM61.5393 64.7159L63.1689 69H61.2577L59.6697 64.7159H61.5393ZM67.7 69H64.45L66.0196 59.5455H69.2419C70.1806 59.5455 70.9593 59.7393 71.5779 60.1271C72.1965 60.5149 72.6304 61.0689 72.8797 61.7891C73.1321 62.5062 73.1752 63.3617 73.009 64.3558C72.8489 65.3284 72.5335 66.1609 72.0626 66.8533C71.5917 67.5458 70.9869 68.0767 70.2483 68.446C69.5097 68.8153 68.6602 69 67.7 69ZM66.4074 67.5181H67.7877C68.4433 67.5181 69.0142 67.3935 69.5004 67.1442C69.9898 66.8918 70.3883 66.5179 70.6961 66.0224C71.007 65.5238 71.2224 64.9052 71.3424 64.1665C71.4624 63.4587 71.4548 62.8739 71.3193 62.4123C71.1839 61.9476 70.9208 61.6013 70.5299 61.3736C70.1421 61.1428 69.6282 61.0273 68.988 61.0273H67.483L66.4074 67.5181ZM78.3087 69H76.4806L81.3786 59.5455H83.493L85.2565 69H83.4284L82.1588 61.4844H82.085L78.3087 69ZM78.9827 65.293H83.9685L83.7377 66.6687H78.7519L78.9827 65.293ZM94.0312 59.5455H95.744L94.7191 65.7223C94.6083 66.3994 94.3498 66.9949 93.9435 67.5089C93.5404 68.0228 93.0264 68.4245 92.4016 68.7138C91.7769 69 91.0813 69.1431 90.315 69.1431C89.5425 69.1431 88.8931 69 88.3668 68.7138C87.8406 68.4245 87.4605 68.0228 87.2266 67.5089C86.9957 66.9949 86.9357 66.3994 87.0465 65.7223L88.0714 59.5455H89.7841L88.7823 65.5792C88.7177 65.9731 88.7469 66.324 88.87 66.6317C88.9962 66.9364 89.2024 67.1765 89.4886 67.3519C89.7779 67.5273 90.1396 67.6151 90.5735 67.6151C91.0075 67.6151 91.3983 67.5273 91.7461 67.3519C92.0939 67.1765 92.3786 66.9364 92.6001 66.6317C92.8217 66.324 92.9648 65.9731 93.0295 65.5792L94.0312 59.5455ZM96.95 60.9812L97.1901 59.5455H104.733L104.493 60.9812H101.571L100.242 69H98.5427L99.8722 60.9812H96.95ZM113.414 64.3835C113.247 65.3868 112.92 66.2424 112.43 66.9503C111.944 67.6551 111.35 68.1952 110.648 68.5707C109.95 68.9431 109.197 69.1293 108.391 69.1293C107.544 69.1293 106.818 68.9323 106.212 68.5384C105.606 68.1413 105.169 67.5735 104.901 66.8349C104.636 66.0962 104.59 65.2099 104.762 64.1758C104.928 63.1755 105.255 62.32 105.741 61.609C106.227 60.8981 106.823 60.3549 107.528 59.9794C108.232 59.6039 108.992 59.4162 109.808 59.4162C110.648 59.4162 111.368 59.6147 111.969 60.0117C112.572 60.4057 113.006 60.9735 113.27 61.7152C113.538 62.4569 113.586 63.3464 113.414 64.3835ZM111.729 64.1758C111.842 63.4772 111.832 62.8878 111.696 62.4077C111.564 61.9276 111.328 61.5659 110.99 61.3228C110.651 61.0766 110.234 60.9535 109.739 60.9535C109.203 60.9535 108.708 61.0874 108.252 61.3551C107.8 61.6198 107.415 62.0076 107.098 62.5185C106.784 63.0294 106.569 63.651 106.452 64.3835C106.329 65.0852 106.336 65.6746 106.475 66.1516C106.613 66.6287 106.854 66.9888 107.195 67.2319C107.537 67.4719 107.954 67.592 108.446 67.592C108.979 67.592 109.471 67.4596 109.923 67.195C110.376 66.9303 110.759 66.544 111.073 66.0362C111.39 65.5284 111.608 64.9083 111.729 64.1758Z" fill="#E4E4E4"/>
<path fill-rule="evenodd" clip-rule="evenodd" d="M52.871 28.851L57.2914 29.0546C55.682 29.0221 49.9098 29.3976 48.9871 30.1061L54.6735 30.0635L54.3087 31.705C53.7187 32.7665 48.3756 31.6399 45.6182 32.391L45.1246 32.5846C46.498 32.6163 47.6245 32.7991 48.8583 32.8525C49.9956 32.9067 51.09 32.7023 52.238 32.7882L48.7081 33.228L48.4399 36.2431L44.1269 35.8142C43.9551 35.3527 44.041 35.2885 44.0839 34.7519C42.3887 34.9021 41.7558 36.1246 42.3351 37.7344C42.4746 38.1525 43.6548 37.6593 43.6762 38.6574C42.3781 38.9895 40.6506 39.0646 39.6421 39.6655C39.6529 39.6763 39.6636 39.6872 39.6743 39.6872C49.6845 39.0863 60.4032 37.3372 70.5417 36.5219C70.6385 36.1463 70.7245 35.7816 70.6594 35.3419L62.1732 33.4859L62.9134 25.7391C63.7396 25.9001 69.1364 28.8935 70.8847 29.5912L64.544 25.6531C63.707 25.1491 63.2781 24.6024 62.1406 24.6667C60.0276 24.7844 57.9563 24.9563 55.8322 25.0956C54.0083 25.2133 53.3538 24.9988 53.1714 25.6431C52.9997 26.2222 52.9568 28.1108 52.871 28.851Z" fill="url(#paint0_linear_315_3)"/>
<path fill-rule="evenodd" clip-rule="evenodd" d="M106.731 54C92.5471 17.0592 29.7392 58.2377 9 31.3187C21.2204 66.799 84.575 26.7697 106.731 54Z" fill="url(#paint1_linear_315_3)"/>
<path fill-rule="evenodd" clip-rule="evenodd" d="M16.9824 36.6504L24.7502 35.331C25.1151 32.9601 25.7373 30.6744 26.5849 28.4963L20.2011 23.218L23.7631 17.0592L31.5202 19.9458C33.0116 18.1007 34.6853 16.4267 36.5307 14.9462L33.6339 7.17772L39.8031 3.61599L45.0711 10.0001C47.249 9.15219 49.545 8.52963 51.9161 8.16495L53.3002 1.90735e-05H60.4132L61.7976 8.16495C64.1685 8.52963 66.4542 9.15219 68.6323 10.0001L73.9107 3.61599L80.0694 7.17772L77.1828 14.9462C79.0288 16.4267 80.702 18.1007 82.1824 19.9458L89.9509 17.0592L93.5127 23.218L87.1286 28.4963C87.9765 30.6644 88.599 32.9601 88.9637 35.331L97.1286 36.7155V40.2664H96.0663C92.0431 38.0457 87.3113 36.9617 82.1507 36.5761C81.3354 30.9965 78.7283 25.9969 74.9296 22.199C70.3055 17.575 63.9115 14.7101 56.8515 14.7101C49.8025 14.7101 43.408 17.575 38.7838 22.199C34.2669 26.7155 31.4237 32.9276 31.3057 39.794C26.0377 39.537 21.1667 38.6466 16.9824 36.6504Z" fill="url(#paint2_linear_315_3)"/>
<path fill-rule="evenodd" clip-rule="evenodd" d="M33.1191 39.8591C33.2265 33.4642 35.8658 27.6918 40.0716 23.4859C44.3632 19.1839 50.2964 16.5335 56.8518 16.5335C63.4069 16.5335 69.3512 19.1839 73.6431 23.4859C77.0872 26.9299 79.4797 31.4363 80.295 36.4685C78.4065 36.3825 76.4646 36.3825 74.4793 36.4468C72.9346 28.1216 65.6284 21.8126 56.8518 21.8126C46.9596 21.8126 38.9343 29.8382 38.9343 39.7406V39.7623C36.9494 39.8591 35.0183 39.8908 33.1191 39.8591Z" fill="url(#paint3_linear_315_3)"/>
<path fill-rule="evenodd" clip-rule="evenodd" d="M106.731 54C92.7507 26.0395 26.3274 62.4971 9 31.3187C21.2204 66.799 86.8499 33.1529 106.731 54Z" fill="url(#paint4_linear_315_3)"/>
<defs>
<linearGradient id="paint0_linear_315_3" x1="39.6421" y1="32.174" x2="70.885" y2="32.174" gradientUnits="userSpaceOnUse">
<stop stop-color="#484848"/>
<stop offset="0.15625" stop-color="#707070"/>
<stop offset="0.348315" stop-color="#CCCCCC"/>
<stop offset="0.552131" stop-color="#767676"/>
<stop offset="0.776786" stop-color="#E2E2E2"/>
<stop offset="0.991071" stop-color="#616161"/>
<stop offset="1" stop-color="#616161"/>
</linearGradient>
<linearGradient id="paint1_linear_315_3" x1="9" y1="42.6589" x2="106.73" y2="42.6589" gradientUnits="userSpaceOnUse">
<stop stop-color="#616161"/>
<stop offset="0.00892857" stop-color="#616161"/>
<stop offset="0.223214" stop-color="#E2E2E2"/>
<stop offset="0.359551" stop-color="#767676"/>
<stop offset="0.651685" stop-color="white"/>
<stop offset="0.84375" stop-color="#707070"/>
<stop offset="1" stop-color="#484848"/>
</linearGradient>
<linearGradient id="paint2_linear_315_3" x1="16.9824" y1="20.1336" x2="97.1283" y2="20.1336" gradientUnits="userSpaceOnUse">
<stop stop-color="#484848"/>
<stop offset="0.15625" stop-color="#707070"/>
<stop offset="0.348315" stop-color="white"/>
<stop offset="0.640449" stop-color="#767676"/>
<stop offset="0.776786" stop-color="#E2E2E2"/>
<stop offset="0.991071" stop-color="#616161"/>
<stop offset="1" stop-color="#616161"/>
</linearGradient>
<linearGradient id="paint3_linear_315_3" x1="33.1191" y1="28.2026" x2="80.2947" y2="28.2026" gradientUnits="userSpaceOnUse">
<stop stop-color="#616161"/>
<stop offset="0.00892857" stop-color="#616161"/>
<stop offset="0.223214" stop-color="#E2E2E2"/>
<stop offset="0.359551" stop-color="#767676"/>
<stop offset="0.651685" stop-color="white"/>
<stop offset="0.84375" stop-color="#707070"/>
<stop offset="1" stop-color="#484848"/>
</linearGradient>
<linearGradient id="paint4_linear_315_3" x1="9" y1="42.6589" x2="106.73" y2="42.6589" gradientUnits="userSpaceOnUse">
<stop stop-color="#484848"/>
<stop offset="0.15625" stop-color="#707070"/>
<stop offset="0.348315" stop-color="white"/>
<stop offset="0.640449" stop-color="#767676"/>
<stop offset="0.776786" stop-color="#E2E2E2"/>
<stop offset="0.991071" stop-color="#616161"/>
<stop offset="1" stop-color="#616161"/>
</linearGradient>
</defs>
</svg>
