<svg width="7" height="12" viewBox="0 0 7 12" fill="none" xmlns="http://www.w3.org/2000/svg">
<path d="M0.655794 0.141213C0.56562 0.233533 0.515137 0.357464 0.515137 0.486516C0.515137 0.615568 0.56562 0.7395 0.655794 0.83182L5.69371 6L0.655794 11.1671C0.56562 11.2595 0.515137 11.3834 0.515137 11.5125C0.515137 11.6415 0.56562 11.7654 0.655794 11.8578C0.699625 11.9028 0.75203 11.9386 0.809916 11.963C0.867802 11.9874 0.929996 12 0.992827 12C1.05566 12 1.11785 11.9874 1.17574 11.963C1.23362 11.9386 1.28603 11.9028 1.32986 11.8578L6.68723 6.36081C6.78133 6.26428 6.83399 6.13481 6.83399 6C6.83399 5.8652 6.78133 5.73572 6.68723 5.63919L1.32986 0.142247C1.28603 0.0972295 1.23362 0.0614494 1.17574 0.0370182C1.11785 0.012587 1.05566 0 0.992827 0C0.929996 0 0.867802 0.012587 0.809916 0.0370182C0.75203 0.0614494 0.699625 0.0972295 0.655794 0.142247V0.141213Z" fill="#494F57"/>
</svg>
