<svg width="7" height="12" viewBox="0 0 7 12" fill="none" xmlns="http://www.w3.org/2000/svg">
<path d="M6.31296 11.8588C6.40313 11.7665 6.45361 11.6425 6.45361 11.5135C6.45361 11.3844 6.40313 11.2605 6.31296 11.1682L1.27504 6L6.31295 0.832852C6.40313 0.740533 6.45361 0.616601 6.45361 0.48755C6.45361 0.358498 6.40313 0.234566 6.31295 0.142245C6.26912 0.0972281 6.21672 0.0614481 6.15883 0.0370169C6.10095 0.0125857 6.03875 -9.17406e-07 5.97592 -9.11913e-07C5.91309 -9.06421e-07 5.8509 0.0125857 5.79301 0.0370169C5.73513 0.0614482 5.68272 0.0972281 5.63889 0.142245L0.281516 5.63919C0.187423 5.73572 0.134761 5.86519 0.134761 6C0.134761 6.13481 0.187423 6.26428 0.281517 6.36081L5.63889 11.8578C5.68272 11.9028 5.73513 11.9386 5.79301 11.963C5.8509 11.9874 5.91309 12 5.97592 12C6.03875 12 6.10095 11.9874 6.15883 11.963C6.21672 11.9386 6.26912 11.9028 6.31296 11.8578L6.31296 11.8588Z" fill="#494F57"/>
</svg>
