<svg width="18" height="16" viewBox="0 0 18 16" fill="none" xmlns="http://www.w3.org/2000/svg">
<path d="M0.75 0C0.334375 0 0 0.334375 0 0.75C0 1.16562 0.334375 1.5 0.75 1.5H2.37812L4.2625 11.3906C4.33125 11.7437 4.64062 12 5 12H15.25C15.6656 12 16 11.6656 16 11.25C16 10.8344 15.6656 10.5 15.25 10.5H5.62187L5.3375 9H15.2437C15.6906 9 16.0844 8.70312 16.2062 8.27188L17.8937 2.27187C18.0719 1.63437 17.5938 1 16.9312 1H3.8125L3.7375 0.609375C3.66875 0.25625 3.35938 0 3 0H0.75ZM5.5 16C6.32812 16 7 15.3281 7 14.5C7 13.6719 6.32812 13 5.5 13C4.67188 13 4 13.6719 4 14.5C4 15.3281 4.67188 16 5.5 16ZM16 14.5C16 13.6719 15.3281 13 14.5 13C13.6719 13 13 13.6719 13 14.5C13 15.3281 13.6719 16 14.5 16C15.3281 16 16 15.3281 16 14.5Z" fill="#F8F8F8"/>
</svg>
