<svg width="11" height="12" viewBox="0 0 11 12" fill="none" xmlns="http://www.w3.org/2000/svg">
<path d="M6.17777 11.8583C6.13387 11.9032 6.08141 11.9389 6.02349 11.9633C5.96557 11.9876 5.90336 12.0001 5.84053 12C5.7777 11.9999 5.71553 11.9872 5.65769 11.9627C5.59984 11.9382 5.54749 11.9023 5.50373 11.8572L0.14659 6.36054C0.0525002 6.26401 -0.000158823 6.13454 -0.000158834 5.99974C-0.000158846 5.86494 0.0525002 5.73548 0.14659 5.63895L5.50373 0.14224C5.54756 0.0972247 5.59996 0.0614466 5.65785 0.0370163C5.71573 0.0125861 5.77792 4.08762e-07 5.84075 4.03269e-07C5.90358 3.97777e-07 5.96577 0.012586 6.02365 0.0370163C6.08154 0.0614466 6.13394 0.0972246 6.17777 0.14224C6.26794 0.234556 6.31842 0.358483 6.31842 0.487529C6.31842 0.616576 6.26794 0.740502 6.17777 0.832817L1.14007 5.99974L6.17777 11.1687C6.26763 11.261 6.31792 11.3847 6.31792 11.5135C6.31792 11.6423 6.26763 11.766 6.17777 11.8583ZM10.313 11.8583C10.2691 11.9032 10.2166 11.9389 10.1587 11.9633C10.1008 11.9876 10.0386 12.0001 9.97573 12C9.9129 11.9999 9.85073 11.9872 9.79288 11.9627C9.73503 11.9382 9.68269 11.9023 9.63893 11.8572L4.28178 6.36054C4.18769 6.26401 4.13503 6.13454 4.13503 5.99974C4.13503 5.86494 4.18769 5.73548 4.28178 5.63895L9.63892 0.14224C9.68275 0.0972243 9.73516 0.0614463 9.79304 0.037016C9.85092 0.0125857 9.91312 4.72517e-08 9.97594 4.17592e-08C10.0388 3.62666e-08 10.101 0.0125857 10.1588 0.0370159C10.2167 0.0614462 10.2691 0.0972243 10.313 0.14224C10.4031 0.234555 10.4536 0.358482 10.4536 0.487529C10.4536 0.616575 10.4031 0.740501 10.313 0.832817L5.27526 5.99974L10.313 11.1687C10.4028 11.261 10.4531 11.3847 10.4531 11.5135C10.4531 11.6423 10.4028 11.766 10.313 11.8583Z" fill="#494F57"/>
</svg>
