<svg width="11" height="12" viewBox="0 0 11 12" fill="none" xmlns="http://www.w3.org/2000/svg">
<path d="M4.79098 0.141724C4.83488 0.0967764 4.88734 0.0610783 4.94526 0.0367369C5.00318 0.0123955 5.06539 -9.58085e-05 5.12822 5.53295e-07C5.19105 9.69151e-05 5.25322 0.012779 5.31106 0.0372979C5.36891 0.0618168 5.42126 0.0976759 5.46502 0.142758L10.8222 5.63946C10.9162 5.73599 10.9689 5.86546 10.9689 6.00026C10.9689 6.13506 10.9162 6.26452 10.8222 6.36105L5.46502 11.8578C5.42119 11.9028 5.36879 11.9386 5.3109 11.963C5.25302 11.9874 5.19083 12 5.128 12C5.06517 12 5.00298 11.9874 4.9451 11.963C4.88721 11.9386 4.83481 11.9028 4.79098 11.8578C4.70081 11.7654 4.65033 11.6415 4.65033 11.5125C4.65033 11.3834 4.70081 11.2595 4.79098 11.1672L9.82868 6.00026L4.79098 0.831268C4.70112 0.738999 4.65083 0.615293 4.65083 0.486496C4.65083 0.3577 4.70112 0.233993 4.79098 0.141724ZM0.655788 0.141724C0.699686 0.0967764 0.752143 0.0610783 0.810065 0.0367369C0.867986 0.0123955 0.930196 -9.58085e-05 0.993024 5.53295e-07C1.05585 9.69151e-05 1.11802 0.012779 1.17587 0.0372979C1.23372 0.0618168 1.28606 0.0976759 1.32982 0.142758L6.68697 5.63946C6.78106 5.73599 6.83372 5.86546 6.83372 6.00026C6.83372 6.13506 6.78106 6.26452 6.68697 6.36105L1.32982 11.8578C1.286 11.9028 1.23359 11.9386 1.17571 11.963C1.11782 11.9874 1.05563 12 0.992806 12C0.929978 12 0.867787 11.9874 0.809903 11.963C0.75202 11.9386 0.699617 11.9028 0.655788 11.8578C0.565617 11.7654 0.515137 11.6415 0.515137 11.5125C0.515137 11.3834 0.565617 11.2595 0.655788 11.1672L5.69349 6.00026L0.655788 0.831268C0.565927 0.738999 0.515641 0.615293 0.515641 0.486496C0.515641 0.3577 0.565927 0.233993 0.655788 0.141724Z" fill="#494F57"/>
</svg>
