<svg width="17" height="16" viewBox="0 0 17 16" fill="none" xmlns="http://www.w3.org/2000/svg">
<g clip-path="url(#clip0_63_214)">
<path d="M8.54903 0.800018C10.7348 0.800018 12.5215 2.53419 12.5215 4.65564C12.5215 6.77708 10.7348 8.51125 8.54903 8.51125C6.3633 8.51125 4.57658 6.77708 4.57658 4.65564C4.57658 2.53419 6.3633 0.800018 8.54903 0.800018Z" fill="#2F4550"/>
<path d="M1.73186 11.5924C1.83595 11.3398 1.97471 11.1041 2.13083 10.8852C2.9288 9.74032 4.16041 8.98268 5.54816 8.79747C5.72162 8.78065 5.91244 8.81429 6.05122 8.91532C6.7798 9.43726 7.64713 9.70665 8.5492 9.70665C9.45126 9.70665 10.3186 9.43726 11.0472 8.91532C11.186 8.81429 11.3768 8.76379 11.5502 8.79747C12.938 8.98268 14.187 9.74032 14.9676 10.8852C15.1237 11.1041 15.2625 11.3567 15.3665 11.5924C15.4186 11.6934 15.4012 11.8113 15.3492 11.9123C15.2104 12.148 15.037 12.3837 14.8808 12.5858C14.638 12.9057 14.3778 13.1919 14.0829 13.4613C13.84 13.697 13.5625 13.9159 13.2849 14.1347C11.9145 15.1281 10.2665 15.65 8.56653 15.65C6.86653 15.65 5.21856 15.1281 3.84816 14.1347C3.57062 13.9327 3.29307 13.697 3.05019 13.4613C2.77265 13.1919 2.4951 12.9056 2.25222 12.5858C2.07877 12.3669 1.92261 12.148 1.78386 11.9123C1.69716 11.8113 1.67983 11.6934 1.73186 11.5924Z" fill="#2F4550"/>
</g>
<defs>
<clipPath id="clip0_63_214">
<rect width="15.3" height="14.85" fill="white" transform="matrix(-1 0 0 1 16.2002 0.800018)"/>
</clipPath>
</defs>
</svg>
